<?xml version="1.0" standalone="no"?>
<!DOCTYPE svg PUBLIC "-//W3C//DTD SVG 20010904//EN"
 "http://www.w3.org/TR/2001/REC-SVG-20010904/DTD/svg10.dtd">
<svg version="1.0" xmlns="http://www.w3.org/2000/svg"
 width="310.000000pt" height="310.000000pt" viewBox="0 0 310.000000 310.000000"
 preserveAspectRatio="xMidYMid meet">
<metadata>
Created by potrace 1.11, written by Peter Selinger 2001-2013
</metadata>
<g transform="translate(0.000000,310.000000) scale(0.100000,-0.100000)"
fill="#000000" stroke="none">
<path d="M509 2426 c-188 -50 -305 -239 -270 -431 13 -68 39 -123 87 -181 38
-47 133 -100 294 -164 137 -54 185 -83 215 -128 64 -98 27 -225 -80 -273 -46
-21 -138 -25 -196 -7 -77 22 -139 95 -169 194 l-12 41 -92 -24 c-50 -14 -95
-29 -100 -33 -11 -10 19 -102 52 -159 85 -149 204 -211 403 -211 179 0 291 49
375 163 54 73 77 146 76 246 0 98 -28 174 -88 240 -55 61 -115 96 -285 167
-205 84 -251 117 -265 190 -10 54 4 102 43 144 58 65 152 78 241 34 54 -27
101 -84 123 -151 6 -19 16 -33 23 -30 6 2 48 17 94 33 94 33 93 30 47 131 -45
100 -141 180 -247 209 -64 17 -206 17 -269 0z"/>
<path d="M1490 1745 l0 -675 95 0 95 0 1 563 1 562 152 -560 153 -560 84 0 83
0 151 545 c83 300 154 552 157 560 4 8 7 -238 7 -547 l1 -563 105 0 105 0 0
675 0 675 -160 0 -160 0 -6 -27 c-19 -76 -261 -923 -265 -927 -2 -2 -63 210
-135 472 l-131 477 -166 3 -167 2 0 -675z"/>
<path d="M130 685 l0 -45 1440 0 1440 0 0 45 0 45 -1440 0 -1440 0 0 -45z"/>
</g>
</svg>
