<?xml version="1.0" standalone="no"?>
<!DOCTYPE svg PUBLIC "-//W3C//DTD SVG 20010904//EN"
 "http://www.w3.org/TR/2001/REC-SVG-20010904/DTD/svg10.dtd">
<svg version="1.0" xmlns="http://www.w3.org/2000/svg"
 width="133.000000pt" height="133.000000pt" viewBox="0 0 133.000000 133.000000"
 preserveAspectRatio="xMidYMid meet">
<metadata>
Created by potrace 1.11, written by Peter Selinger 2001-2013
</metadata>
<g transform="translate(0.000000,133.000000) scale(0.100000,-0.100000)"
fill="#000000" stroke="none">
<path d="M0 665 l0 -665 665 0 665 0 0 665 0 665 -665 0 -665 0 0 -665z m1000
462 c-40 -206 -107 -291 -270 -342 -30 -10 -59 -21 -65 -26 -5 -5 -17 -9 -26
-9 -36 0 -126 -54 -172 -104 -78 -84 -97 -196 -54 -308 17 -43 36 -69 80 -107
32 -28 61 -51 65 -52 38 -6 72 -5 72 2 0 5 19 9 43 9 23 0 53 7 67 15 14 8 32
17 40 21 43 21 81 59 77 76 -3 12 2 23 14 31 10 6 19 19 19 29 0 9 5 20 11 23
6 4 7 14 4 24 -7 16 -10 39 -13 94 -2 33 -53 87 -82 87 -11 0 -20 5 -20 10 0
6 -10 8 -22 6 -13 -3 -45 -8 -71 -11 -54 -7 -100 -47 -105 -93 -12 -99 3 -158
44 -168 37 -10 74 13 101 61 19 33 23 36 23 17 0 -60 -61 -122 -120 -122 -84
0 -150 82 -150 188 0 71 13 103 62 148 63 60 113 78 213 79 81 0 95 -3 138
-28 58 -34 92 -84 108 -156 37 -175 -40 -325 -213 -416 -65 -35 -83 -39 -161
-43 -83 -4 -91 -3 -153 28 -82 40 -134 93 -175 175 -74 150 -37 367 80 478 38
36 157 107 180 107 7 0 27 7 44 15 18 8 58 24 91 36 70 25 184 120 220 182 14
23 37 76 53 117 l28 75 3 -45 c2 -25 -2 -71 -8 -103z"/>
</g>
</svg>
