<?xml version="1.0" encoding="utf-8"?>
<!-- Generator: Adobe Illustrator 17.0.0, SVG Export Plug-In . SVG Version: 6.00 Build 0)  -->
<!DOCTYPE svg PUBLIC "-//W3C//DTD SVG 1.1//EN" "http://www.w3.org/Graphics/SVG/1.1/DTD/svg11.dtd">
<svg version="1.1" id="Layer_1" xmlns="http://www.w3.org/2000/svg" xmlns:xlink="http://www.w3.org/1999/xlink" x="0px" y="0px"
	 width="311.474px" height="311.475px" viewBox="0 0 311.474 311.475" enable-background="new 0 0 311.474 311.475"
	 xml:space="preserve">
<path d="M259.568,103.417c-27.239-7.624-55.16,1.515-72.43,23.659c-6.844,8.776-11.459,18.681-15.156,30.045
	c-1.584-2.486-2.67-4.14-3.708-5.825c-12.282-19.938-21.906-41.121-28.645-63.513c-1.667-5.539-3.957-7.277-9.562-6.85
	c-7.289,0.555-14.652,0.095-21.983,0.147c-6.993,0.05-6.303-0.984-6.31,6.469c-0.028,28.325,0.139,56.651-0.064,84.974
	c-0.161,22.599-20.026,38.02-41.297,32.41c-14.373-3.79-24.093-16.541-24.159-32.266c-0.123-28.991-0.108-57.983,0.045-86.973
	c0.02-3.767-1.017-4.835-4.759-4.714c-8.655,0.278-17.335,0.335-25.985-0.016c-4.339-0.176-5.121,1.366-5.097,5.354
	c0.17,28.324,0.058,56.649,0.128,84.974c0.01,3.983,0.319,7.99,0.829,11.942c4.231,32.788,33.532,58.455,66.889,58.68
	c33.842,0.227,63.415-24.935,68.256-57.795c1.156-7.848,0.377-15.751,1.108-24.196c0.743,0.876,1.111,1.173,1.305,1.558
	c6.374,12.666,13.508,24.867,22.304,36.025c1.461,1.853,1.167,3.604,0.738,5.616c-6.624,31.081-13.08,62.199-19.931,93.23
	c-1.061,4.805,0.404,5.198,4.399,5.091c8.658-0.232,17.333-0.278,25.987,0.022c3.906,0.135,5.325-1.027,6.12-4.958
	c4.383-21.689,9.211-43.288,13.664-64.964c0.715-3.483,1.624-3.639,4.368-1.891c4.496,2.862,9.371,5.04,14.371,6.902
	c53.657,19.981,105.677-18.905,99.53-74.398C307.501,134.88,286.825,111.046,259.568,103.417z M236.374,206.066
	c-10.534-0.251-22.351-5.923-33.235-14.057c-1.327-0.992-2.08-2.06-1.673-3.773c2.681-11.285,3.935-22.968,9.747-33.36
	c7.864-14.06,19.676-20.139,35.216-17.935c13.818,1.959,25.263,12.948,28.422,27.289
	C279.649,186.012,262.631,206.304,236.374,206.066z"/>
</svg>
